<svg preserveAspectRatio="none" overflow="visible" style="display: block;" width="16" height="16" viewBox="0 0 16 16" fill="none" xmlns="http://www.w3.org/2000/svg">
<g id="icon/&#231;&#186;&#191;&#230;&#128;&#167;/16px/&#229;&#175;&#185;&#232;&#175;&#157;" clip-path="url(#clip0_0_247)">
<path id="Vector" d="M8.00029 1.16636C11.7741 1.16653 14.8333 4.2265 14.8333 8.00034C14.8331 11.7741 11.774 14.8332 8.00029 14.8333C6.90751 14.8333 5.87376 14.5769 4.95732 14.1205C4.75076 14.0176 4.52055 13.9866 4.30889 14.0433L2.82549 14.4398C2.05751 14.6453 1.35473 13.9431 1.55986 13.1751L1.95732 11.6908C2.01394 11.4792 1.9831 11.2489 1.88018 11.0423C1.42378 10.126 1.16636 9.09299 1.16631 8.00034C1.16631 4.2264 4.22635 1.16636 8.00029 1.16636ZM8.00029 1.50034C4.41044 1.50034 1.50029 4.41049 1.50029 8.00034C1.50034 9.04028 1.74413 10.0227 2.17803 10.8939C2.31203 11.1629 2.35903 11.4761 2.27861 11.7767L1.88213 13.2611C1.74307 13.7813 2.21923 14.2577 2.73955 14.1185L4.22295 13.721C4.52343 13.6407 4.83675 13.6877 5.10576 13.8216C5.9771 14.2556 6.96018 14.5003 8.00029 14.5003C11.5899 14.5002 14.5001 11.5899 14.5003 8.00034C14.5003 4.4106 11.59 1.50052 8.00029 1.50034ZM8.00029 6.66636C8.09219 6.66652 8.16631 6.74141 8.16631 6.83335V8.00034H9.3333C9.42524 8.00034 9.50013 8.07446 9.50029 8.16636C9.50029 8.2584 9.42534 8.33335 9.3333 8.33335H8.16631V9.50034C8.16612 9.59212 8.09208 9.66619 8.00029 9.66636C7.90837 9.66636 7.83349 9.59222 7.8333 9.50034V8.33335H6.66631C6.57444 8.33316 6.50029 8.25829 6.50029 8.16636C6.50046 8.07457 6.57455 8.00053 6.66631 8.00034H7.8333V6.83335C7.8333 6.74131 7.90825 6.66636 8.00029 6.66636Z" fill="#040506" stroke="#040506" stroke-width="0.666667"/>
</g>
<defs>
<clipPath id="clip0_0_247">
<rect width="16" height="16" fill="white"/>
</clipPath>
</defs>
</svg>
